SplineFontDB: 3.0
FontName: AVHersheyDuplexMedium
FullName: AVHershey Duplex Medium
FamilyName: AVHershey Duplex
Weight: Regular
Copyright: Made in 2016 by Stewart C. Russell - scruss.com\n\nLicence: Dual-licensed CC0/WTFPL (srsly)\n\nDerived from character stroke coordinates by Allen V. Hershey published in "Calligraphy for Computers" (US Naval Weapons Laboratory, 1967-08-01, NWL Report No. 2101, NTIS accession number AD-662 398) and elsewhere. These coordinates were published without copyright.\n\nThe efforts of the Usenet Font Consortium (James Hurt, et al) who reformatted Hershey's data and published it to mod.sources on 1986-04-01 [Volume 4, Issue 42] are greatly appreciated.
UComments: "2016-2-6: Created with FontForge (http://fontforge.org)"
Version: 000.001
ItalicAngle: 0
UnderlinePosition: -100
UnderlineWidth: 50
Ascent: 800
Descent: 200
InvalidEm: 0
LayerCount: 2
Layer: 0 0 "Back" 1
Layer: 1 0 "Fore" 0
XUID: [1021 380 1344879336 2567945]
StyleMap: 0x0000
FSType: 0
OS2Version: 0
OS2_WeightWidthSlopeOnly: 0
OS2_UseTypoMetrics: 1
CreationTime: 1454818985
ModificationTime: 1454976908
OS2TypoAscent: 0
OS2TypoAOffset: 1
OS2TypoDescent: 0
OS2TypoDOffset: 1
OS2TypoLinegap: 90
OS2WinAscent: 0
OS2WinAOffset: 1
OS2WinDescent: 0
OS2WinDOffset: 1
HheadAscent: 0
HheadAOffset: 1
HheadDescent: 0
HheadDOffset: 1
MarkAttachClasses: 1
DEI: 91125
Encoding: ISO8859-1
UnicodeInterp: none
NameList: AGL For New Fonts
DisplaySize: -48
AntiAlias: 1
FitToEm: 1
WinInfo: 0 29 11
BeginPrivate: 0
EndPrivate
BeginChars: 260 83

StartChar: exclam
Encoding: 33 33 0
Width: 286
VWidth: 0
Flags: W
HStem: 0 21G<119 167> 580 20G<119 167>
VStem: 102 82<199 583>
LayerCount: 2
Back
Fore
SplineSet
84 100 m 1
 119 132 l 1
 156 134 l 1
 167 132 l 1
 202 100 l 1
 208 91 l 1
 210 54 l 1
 208 43 l 1
 202 34 l 1
 167 2 l 1
 130 0 l 1
 119 2 l 1
 110 8 l 1
 78 43 l 1
 76 80 l 1
 78 91 l 1
 84 100 l 1
102 209 m 1
 102 572 l 1
 104 583 l 1
 110 592 l 1
 119 598 l 1
 156 600 l 1
 167 598 l 1
 176 592 l 1
 182 583 l 1
 184 572 l 1
 184 209 l 1
 182 199 l 1
 176 190 l 1
 167 183 l 1
 130 181 l 1
 119 183 l 1
 110 190 l 1
 104 199 l 1
 102 209 l 1
EndSplineSet
EndChar

StartChar: dollar
Encoding: 36 36 1
Width: 491
VWidth: 0
Flags: W
VStem: 49 81<449 483> 204 82<-86 0 86 255 384 514 600 686> 359 82<138 177>
LayerCount: 2
Back
Fore
SplineSet
128 134 m 1
 139 132 l 1
 171 103 l 1
 204 86 l 1
 204 296 l 1
 116 340 l 1
 83 371 l 1
 52 430 l 1
 49 442 l 1
 51 505 l 1
 109 566 l 1
 120 573 l 1
 204 600 l 1
 204 676 l 1
 206 686 l 1
 212 695 l 1
 221 701 l 1
 232 704 l 1
 269 701 l 1
 278 695 l 1
 284 686 l 1
 286 676 l 1
 286 600 l 1
 370 573 l 1
 381 566 l 1
 439 505 l 1
 441 494 l 1
 439 484 l 1
 433 474 l 1
 424 468 l 1
 362 466 l 1
 351 468 l 1
 319 497 l 1
 286 514 l 1
 286 343 l 1
 355 307 l 1
 412 248 l 1
 438 196 l 1
 441 183 l 1
 441 132 l 1
 438 119 l 1
 412 67 l 1
 381 34 l 1
 370 27 l 1
 286 0 l 1
 284 -86 l 1
 278 -95 l 1
 269 -101 l 1
 232 -104 l 1
 221 -101 l 1
 212 -95 l 1
 206 -86 l 1
 204 0 l 1
 120 27 l 1
 109 34 l 1
 51 95 l 1
 49 106 l 1
 51 116 l 1
 57 126 l 1
 66 132 l 1
 128 134 l 1
204 384 m 1
 204 516 l 1
 144 496 l 1
 130 483 l 1
 130 449 l 1
 149 412 l 1
 204 384 l 1
286 255 m 1
 286 84 l 1
 323 97 l 1
 346 112 l 1
 359 138 l 1
 359 177 l 1
 339 219 l 1
 319 238 l 1
 286 255 l 1
EndSplineSet
EndChar

StartChar: ampersand
Encoding: 38 38 2
Width: 647
VWidth: 0
Flags: W
HStem: 0 82<187 277 524 580> 337 82<524 580> 580 20G<246 297>
VStem: 49 82<138 177> 154 80<447 488> 308 82<449 488>
LayerCount: 2
Back
Fore
SplineSet
189 340 m 1
 180 356 l 1
 154 434 l 1
 152 494 l 1
 155 507 l 1
 187 566 l 1
 246 597 l 1
 258 600 l 1
 297 597 l 1
 356 566 l 1
 387 507 l 1
 390 494 l 1
 390 442 l 1
 387 430 l 1
 356 371 l 1
 299 315 l 1
 378 218 l 1
 413 322 l 1
 446 385 l 1
 505 416 l 1
 517 419 l 1
 569 419 l 1
 580 417 l 1
 589 410 l 1
 595 401 l 1
 597 391 l 1
 595 354 l 1
 589 345 l 1
 580 339 l 1
 524 337 l 1
 504 327 l 1
 491 302 l 1
 439 146 l 1
 482 103 l 1
 524 82 l 1
 569 82 l 1
 580 80 l 1
 589 74 l 1
 595 65 l 1
 597 54 l 1
 597 28 l 1
 595 17 l 1
 589 8 l 1
 580 2 l 1
 569 0 l 1
 517 0 l 1
 505 3 l 1
 446 34 l 1
 401 79 l 1
 348 29 l 1
 297 3 l 1
 284 0 l 1
 180 0 l 1
 168 3 l 1
 109 34 l 1
 78 67 l 1
 52 119 l 1
 49 132 l 1
 49 183 l 1
 52 196 l 1
 83 255 l 1
 135 307 l 1
 189 340 l 1
245 508 m 1
 234 488 l 1
 234 447 l 1
 256 381 l 1
 267 387 l 1
 287 407 l 1
 308 449 l 1
 308 488 l 1
 298 508 l 1
 277 518 l 1
 265 518 l 1
 245 508 l 1
232 275 m 1
 172 239 l 1
 152 219 l 1
 131 177 l 1
 131 138 l 1
 150 101 l 1
 187 82 l 1
 277 82 l 1
 319 103 l 1
 339 122 l 1
 346 137 l 1
 232 275 l 1
EndSplineSet
EndChar

StartChar: parenleft
Encoding: 40 40 3
Width: 362
VWidth: 0
Flags: W
HStem: -181 21G<247 294>
VStem: 49 81<177.56 344.44>
LayerCount: 2
Back
Fore
SplineSet
186 644 m 1
 247 701 l 1
 284 704 l 1
 294 701 l 1
 303 695 l 1
 309 686 l 1
 312 676 l 1
 309 665 l 1
 254 606 l 1
 204 532 l 1
 155 433 l 1
 130 310 l 1
 130 212 l 1
 155 89 l 1
 204 -10 l 1
 254 -84 l 1
 309 -143 l 1
 312 -153 l 1
 309 -164 l 1
 303 -173 l 1
 294 -179 l 1
 284 -181 l 1
 258 -181 l 1
 247 -179 l 1
 238 -173 l 1
 183 -117 l 1
 131 -39 l 1
 75 74 l 1
 49 204 l 1
 49 318 l 1
 75 448 l 1
 129 559 l 1
 186 644 l 1
EndSplineSet
EndChar

StartChar: parenright
Encoding: 41 41 4
Width: 363
VWidth: 0
Flags: W
HStem: -181 21G<67 114>
VStem: 231 81<177.56 343.429>
LayerCount: 2
Back
Fore
SplineSet
49 676 m 1
 52 686 l 1
 58 695 l 1
 67 701 l 1
 103 704 l 1
 114 701 l 1
 178 639 l 1
 232 559 l 1
 284 455 l 1
 313 313 l 1
 312 204 l 1
 284 67 l 1
 232 -36 l 1
 178 -117 l 1
 123 -173 l 1
 114 -179 l 1
 103 -181 l 1
 77 -181 l 1
 67 -179 l 1
 58 -173 l 1
 52 -164 l 1
 49 -153 l 1
 52 -143 l 1
 107 -84 l 1
 157 -10 l 1
 206 89 l 1
 231 212 l 1
 231 310 l 1
 206 433 l 1
 157 532 l 1
 107 606 l 1
 58 656 l 1
 52 665 l 1
 49 676 l 1
EndSplineSet
EndChar

StartChar: asterisk
Encoding: 42 42 5
Width: 415
VWidth: 0
Flags: W
HStem: 580 20G<196 218>
VStem: 49 315<376 402 484 509>
LayerCount: 2
Back
Fore
SplineSet
49 494 m 1
 53 509 l 1
 67 520 l 1
 103 522 l 1
 120 517 l 1
 165 483 l 1
 154 541 l 1
 156 558 l 1
 187 592 l 1
 196 598 l 1
 207 600 l 1
 218 598 l 1
 253 566 l 1
 261 550 l 1
 249 483 l 1
 302 521 l 1
 343 521 l 1
 353 517 l 1
 361 509 l 1
 364 498 l 1
 365 468 l 1
 362 458 l 1
 356 448 l 1
 282 417 l 1
 356 385 l 1
 362 376 l 1
 365 365 l 1
 364 335 l 1
 361 324 l 1
 353 316 l 1
 343 312 l 1
 302 312 l 1
 249 350 l 1
 260 293 l 1
 258 275 l 1
 227 241 l 1
 218 235 l 1
 207 233 l 1
 196 235 l 1
 161 267 l 1
 153 283 l 1
 165 350 l 1
 112 312 l 1
 71 312 l 1
 61 316 l 1
 53 324 l 1
 50 335 l 1
 49 365 l 1
 52 376 l 1
 58 385 l 1
 132 417 l 1
 58 448 l 1
 52 458 l 1
 49 468 l 1
 49 494 l 1
EndSplineSet
EndChar

StartChar: plus
Encoding: 43 43 6
Width: 647
VWidth: 0
Flags: W
HStem: 233 82<92 282 364 554>
VStem: 282 82<43 233 315 505>
LayerCount: 2
Back
Fore
SplineSet
75 287 m 1
 77 298 l 1
 83 307 l 1
 92 313 l 1
 103 315 l 1
 282 315 l 1
 282 494 l 1
 284 505 l 1
 290 514 l 1
 299 520 l 1
 336 522 l 1
 347 520 l 1
 356 514 l 1
 362 505 l 1
 364 494 l 1
 364 315 l 1
 543 315 l 1
 554 313 l 1
 563 307 l 1
 569 298 l 1
 571 261 l 1
 569 250 l 1
 563 241 l 1
 554 235 l 1
 543 233 l 1
 364 233 l 1
 364 54 l 1
 362 43 l 1
 356 34 l 1
 347 28 l 1
 310 26 l 1
 299 28 l 1
 290 34 l 1
 284 43 l 1
 282 54 l 1
 282 233 l 1
 103 233 l 1
 92 235 l 1
 83 241 l 1
 77 250 l 1
 75 287 l 1
EndSplineSet
EndChar

StartChar: comma
Encoding: 44 44 7
Width: 286
VWidth: 0
Flags: W
HStem: -101 233
VStem: 78 130
LayerCount: 2
Back
Fore
SplineSet
139 0 m 1
 119 2 l 1
 84 34 l 1
 78 43 l 1
 76 54 l 1
 76 80 l 1
 78 91 l 1
 84 100 l 1
 110 126 l 1
 119 132 l 1
 130 134 l 1
 156 134 l 1
 167 132 l 1
 176 126 l 1
 208 91 l 1
 210 2 l 1
 208 -9 l 1
 176 -70 l 1
 117 -101 l 1
 106 -104 l 1
 95 -102 l 1
 86 -97 l 1
 79 -88 l 1
 76 -78 l 1
 78 -67 l 1
 83 -57 l 1
 92 -51 l 1
 132 -30 l 1
 139 0 l 1
EndSplineSet
EndChar

StartChar: hyphen
Encoding: 45 45 8
Width: 647
VWidth: 0
Flags: W
HStem: 233 82<92 554>
LayerCount: 2
Back
Fore
SplineSet
75 287 m 1
 77 298 l 1
 83 307 l 1
 92 313 l 1
 103 315 l 1
 543 315 l 1
 554 313 l 1
 563 307 l 1
 569 298 l 1
 571 261 l 1
 569 250 l 1
 563 241 l 1
 554 235 l 1
 543 233 l 1
 103 233 l 1
 92 235 l 1
 83 241 l 1
 77 250 l 1
 75 287 l 1
EndSplineSet
EndChar

StartChar: period
Encoding: 46 46 9
Width: 286
VWidth: 0
Flags: W
HStem: 2 130
VStem: 78 130
LayerCount: 2
Back
Fore
SplineSet
84 100 m 1
 119 132 l 1
 156 134 l 1
 167 132 l 1
 202 100 l 1
 208 91 l 1
 210 54 l 1
 208 43 l 1
 202 34 l 1
 167 2 l 1
 130 0 l 1
 119 2 l 1
 110 8 l 1
 78 43 l 1
 76 80 l 1
 78 91 l 1
 84 100 l 1
EndSplineSet
EndChar

StartChar: slash
Encoding: 47 47 10
Width: 596
VWidth: 0
Flags: W
HStem: -181 21G<40 84>
LayerCount: 2
Back
Fore
SplineSet
26 -140 m 1
 493 689 l 1
 500 698 l 1
 510 703 l 1
 543 704 l 1
 554 701 l 1
 564 694 l 1
 570 684 l 1
 571 673 l 1
 567 662 l 1
 101 -167 l 1
 94 -175 l 1
 84 -180 l 1
 51 -181 l 1
 40 -179 l 1
 30 -172 l 1
 24 -162 l 1
 23 -151 l 1
 26 -140 l 1
EndSplineSet
EndChar

StartChar: zero
Encoding: 48 48 11
Width: 517
VWidth: 0
Flags: W
HStem: 1 81<237 279> 518 81<237 279>
VStem: 49 82<228.708 371.292> 385 82<228.708 371.292>
LayerCount: 2
Back
Fore
SplineSet
228 599 m 1
 293 599 l 1
 370 573 l 1
 385 562 l 1
 441 474 l 1
 467 339 l 1
 467 256 l 1
 437 116 l 1
 379 32 l 1
 284 0 l 1
 223 1 l 1
 146 27 l 1
 131 38 l 1
 75 126 l 1
 49 261 l 1
 49 344 l 1
 79 484 l 1
 137 568 l 1
 228 599 l 1
183 100 m 1
 237 82 l 1
 279 82 l 1
 333 100 l 1
 361 143 l 1
 385 264 l 1
 385 336 l 1
 361 457 l 1
 333 500 l 1
 279 518 l 1
 237 518 l 1
 183 500 l 1
 155 457 l 1
 131 336 l 1
 131 264 l 1
 155 143 l 1
 183 100 l 1
EndSplineSet
EndChar

StartChar: one
Encoding: 49 49 12
Width: 519
VWidth: 0
Flags: W
HStem: 0 21G<248 296> 580 20G<274 296>
VStem: 231 82<17 453>
LayerCount: 2
Back
Fore
SplineSet
127 442 m 1
 129 477 l 1
 136 488 l 1
 191 517 l 1
 274 598 l 1
 285 600 l 1
 296 598 l 1
 305 592 l 1
 311 583 l 1
 313 572 l 1
 313 28 l 1
 311 17 l 1
 305 8 l 1
 296 2 l 1
 259 0 l 1
 248 2 l 1
 239 8 l 1
 233 17 l 1
 231 28 l 1
 231 453 l 1
 220 443 l 1
 157 415 l 1
 146 416 l 1
 136 422 l 1
 130 431 l 1
 127 442 l 1
EndSplineSet
EndChar

StartChar: two
Encoding: 50 50 13
Width: 517
VWidth: 0
Flags: W
HStem: 0 82<189 450> 518 82<213 303>
VStem: 360 81<423 462>
LayerCount: 2
Back
Fore
SplineSet
49 27 m 1
 50 37 l 1
 56 47 l 1
 288 304 l 1
 337 379 l 1
 360 423 l 1
 360 462 l 1
 341 499 l 1
 303 518 l 1
 213 518 l 1
 175 499 l 1
 156 462 l 1
 154 432 l 1
 148 423 l 1
 139 417 l 1
 128 414 l 1
 92 417 l 1
 83 423 l 1
 77 432 l 1
 75 468 l 1
 78 481 l 1
 103 533 l 1
 142 571 l 1
 194 597 l 1
 206 600 l 1
 310 600 l 1
 322 597 l 1
 374 571 l 1
 413 533 l 1
 438 481 l 1
 441 468 l 1
 441 417 l 1
 438 404 l 1
 411 349 l 1
 359 272 l 1
 189 82 l 1
 439 82 l 1
 450 80 l 1
 459 74 l 1
 465 65 l 1
 467 28 l 1
 465 17 l 1
 459 8 l 1
 450 2 l 1
 439 0 l 1
 77 0 l 1
 66 2 l 1
 57 8 l 1
 51 17 l 1
 49 27 l 1
EndSplineSet
EndChar

StartChar: three
Encoding: 51 51 14
Width: 517
VWidth: 0
Flags: W
HStem: 1 81<211 279> 518 82<118 310>
VStem: 385 82<166 218>
LayerCount: 2
Back
Fore
SplineSet
125 148 m 1
 144 112 l 1
 167 97 l 1
 211 82 l 1
 279 82 l 1
 323 97 l 1
 352 116 l 1
 371 144 l 1
 385 188 l 1
 385 205 l 1
 371 249 l 1
 352 277 l 1
 323 296 l 1
 279 311 l 1
 199 312 l 1
 186 319 l 1
 178 335 l 1
 179 346 l 1
 184 356 l 1
 310 518 l 1
 128 518 l 1
 118 520 l 1
 109 526 l 1
 103 535 l 1
 100 546 l 1
 100 572 l 1
 103 583 l 1
 109 592 l 1
 118 598 l 1
 128 600 l 1
 413 600 l 1
 432 593 l 1
 441 574 l 1
 436 555 l 1
 305 387 l 1
 370 365 l 1
 381 359 l 1
 433 307 l 1
 440 296 l 1
 466 218 l 1
 467 183 l 1
 440 97 l 1
 433 86 l 1
 381 34 l 1
 370 27 l 1
 284 0 l 1
 197 1 l 1
 120 27 l 1
 109 34 l 1
 78 67 l 1
 52 119 l 1
 49 130 l 1
 50 141 l 1
 56 151 l 1
 66 157 l 1
 77 160 l 1
 111 158 l 1
 125 148 l 1
EndSplineSet
EndChar

StartChar: four
Encoding: 52 52 15
Width: 518
VWidth: 0
Flags: W
HStem: 0 21G<326 373> 130 81<175 309 391 477> 580 20G<347 368>
VStem: 309 82<17 130 211 405>
LayerCount: 2
Back
Fore
SplineSet
55 173 m 1
 340 588 l 1
 347 595 l 1
 358 600 l 1
 368 599 l 1
 378 595 l 1
 388 583 l 1
 391 572 l 1
 391 211 l 1
 466 211 l 1
 477 209 l 1
 486 203 l 1
 492 194 l 1
 494 183 l 1
 494 158 l 1
 492 147 l 1
 486 138 l 1
 477 132 l 1
 466 130 l 1
 391 130 l 1
 388 17 l 1
 382 8 l 1
 373 2 l 1
 337 0 l 1
 326 2 l 1
 317 8 l 1
 311 17 l 1
 309 130 l 1
 78 130 l 1
 68 131 l 1
 53 144 l 1
 50 164 l 1
 55 173 l 1
175 211 m 1
 309 211 l 1
 309 405 l 1
 175 211 l 1
EndSplineSet
EndChar

StartChar: five
Encoding: 53 53 16
Width: 517
VWidth: 0
Flags: W
HStem: 1 81<211 279> 337 82<187 279> 518 82<179 398>
VStem: 385 82<166 244>
LayerCount: 2
Back
Fore
SplineSet
75 342 m 1
 101 575 l 1
 104 586 l 1
 111 594 l 1
 128 600 l 1
 388 600 l 1
 398 598 l 1
 407 592 l 1
 413 583 l 1
 416 572 l 1
 416 546 l 1
 413 535 l 1
 407 526 l 1
 398 520 l 1
 388 518 l 1
 179 518 l 1
 163 406 l 1
 206 419 l 1
 293 417 l 1
 370 391 l 1
 381 385 l 1
 433 333 l 1
 440 322 l 1
 466 244 l 1
 467 183 l 1
 440 97 l 1
 433 86 l 1
 381 34 l 1
 370 27 l 1
 284 0 l 1
 197 1 l 1
 120 27 l 1
 109 34 l 1
 78 67 l 1
 52 119 l 1
 49 130 l 1
 50 141 l 1
 56 151 l 1
 66 157 l 1
 77 160 l 1
 111 158 l 1
 121 153 l 1
 128 144 l 1
 144 112 l 1
 167 97 l 1
 211 82 l 1
 279 82 l 1
 323 97 l 1
 352 116 l 1
 371 144 l 1
 385 188 l 1
 385 231 l 1
 371 275 l 1
 352 303 l 1
 323 322 l 1
 279 337 l 1
 187 337 l 1
 141 314 l 1
 128 311 l 1
 99 311 l 1
 89 314 l 1
 81 321 l 1
 76 331 l 1
 75 342 l 1
EndSplineSet
EndChar

StartChar: six
Encoding: 54 54 17
Width: 518
VWidth: 0
Flags: W
HStem: 0 21G<193.556 293> 518 81<263 305>
VStem: 385 81<175 218>
LayerCount: 2
Back
Fore
SplineSet
161 359 m 1
 171 365 l 1
 249 391 l 1
 293 391 l 1
 370 365 l 1
 381 359 l 1
 433 307 l 1
 440 296 l 1
 466 218 l 1
 466 175 l 1
 440 97 l 1
 433 86 l 1
 381 34 l 1
 370 27 l 1
 293 1 l 1
 258 0 l 1
 171 27 l 1
 160 34 l 1
 109 86 l 1
 101 99 l 1
 75 209 l 1
 75 339 l 1
 101 474 l 1
 105 484 l 1
 163 568 l 1
 249 599 l 1
 310 600 l 1
 396 573 l 1
 406 567 l 1
 438 507 l 1
 441 496 l 1
 440 485 l 1
 434 475 l 1
 425 469 l 1
 413 466 l 1
 377 468 l 1
 362 482 l 1
 352 502 l 1
 305 518 l 1
 263 518 l 1
 209 500 l 1
 181 457 l 1
 161 359 l 1
158 208 m 1
 175 138 l 1
 190 116 l 1
 219 97 l 1
 263 82 l 1
 279 82 l 1
 323 97 l 1
 352 116 l 1
 371 144 l 1
 385 188 l 1
 385 205 l 1
 371 249 l 1
 352 277 l 1
 323 296 l 1
 279 311 l 1
 263 311 l 1
 219 296 l 1
 190 277 l 1
 171 249 l 1
 158 208 l 1
EndSplineSet
EndChar

StartChar: seven
Encoding: 55 55 18
Width: 517
VWidth: 0
Flags: W
HStem: 0 21G<143 190> 518 82<66 357>
LayerCount: 2
Back
Fore
SplineSet
49 572 m 1
 51 583 l 1
 57 592 l 1
 66 598 l 1
 77 600 l 1
 439 600 l 1
 450 598 l 1
 460 591 l 1
 466 582 l 1
 467 571 l 1
 465 560 l 1
 206 16 l 1
 199 7 l 1
 190 2 l 1
 154 0 l 1
 143 2 l 1
 134 9 l 1
 128 18 l 1
 126 29 l 1
 129 40 l 1
 357 518 l 1
 77 518 l 1
 66 520 l 1
 57 526 l 1
 51 535 l 1
 49 572 l 1
EndSplineSet
EndChar

StartChar: eight
Encoding: 56 56 19
Width: 517
VWidth: 0
Flags: W
HStem: 1 81<211 305> 518 81<211 305>
VStem: 49 82<138 203> 75 81<449 488> 360 81<449 488> 385 82<138 203>
LayerCount: 2
Back
Fore
SplineSet
372 339 m 1xd8
 433 281 l 1
 464 222 l 1
 467 209 l 1
 467 132 l 1
 464 119 l 1
 433 60 l 1
 407 34 l 1
 396 27 l 1
 310 0 l 1
 197 1 l 1
 120 27 l 1
 109 34 l 1
 78 67 l 1
 52 119 l 1
 49 132 l 1
 49 209 l 1xe4
 52 222 l 1
 83 281 l 1
 144 339 l 1
 103 378 l 1
 78 430 l 1
 75 442 l 1
 75 494 l 1
 78 507 l 1
 110 567 l 1
 197 599 l 1
 310 600 l 1
 396 573 l 1
 406 567 l 1
 438 507 l 1
 441 494 l 1
 441 442 l 1
 438 430 l 1
 413 378 l 1
 372 339 l 1xd8
144 112 m 1
 167 97 l 1
 211 82 l 1
 305 82 l 1
 349 97 l 1
 372 112 l 1
 385 138 l 1
 385 203 l 1
 365 245 l 1
 345 264 l 1
 300 287 l 1
 258 297 l 1
 216 287 l 1
 171 264 l 1
 151 245 l 1
 131 203 l 1
 131 138 l 1
 144 112 l 1
258 381 m 1
 300 391 l 1
 341 412 l 1
 360 449 l 1
 360 488 l 1
 352 502 l 1
 305 518 l 1
 211 518 l 1
 164 502 l 1
 156 488 l 1
 156 449 l 1xd8
 175 412 l 1
 216 391 l 1
 258 381 l 1
EndSplineSet
EndChar

StartChar: nine
Encoding: 57 57 20
Width: 518
VWidth: 0
Flags: W
HStem: 0 82<212 254> 580 20G<224 323.444>
VStem: 51 81<382 425>
LayerCount: 2
Back
Fore
SplineSet
356 241 m 1
 346 235 l 1
 268 209 l 1
 224 209 l 1
 147 235 l 1
 136 241 l 1
 84 293 l 1
 77 304 l 1
 51 382 l 1
 51 425 l 1
 77 503 l 1
 84 514 l 1
 136 566 l 1
 147 573 l 1
 224 599 l 1
 259 600 l 1
 346 573 l 1
 357 566 l 1
 408 514 l 1
 416 501 l 1
 442 391 l 1
 442 261 l 1
 416 126 l 1
 412 116 l 1
 354 32 l 1
 268 1 l 1
 207 0 l 1
 121 27 l 1
 111 33 l 1
 79 93 l 1
 76 104 l 1
 77 115 l 1
 83 125 l 1
 92 131 l 1
 104 134 l 1
 140 132 l 1
 155 118 l 1
 165 98 l 1
 212 82 l 1
 254 82 l 1
 308 100 l 1
 336 143 l 1
 356 241 l 1
146 456 m 1
 132 412 l 1
 132 395 l 1
 146 351 l 1
 165 323 l 1
 194 304 l 1
 238 289 l 1
 254 289 l 1
 298 304 l 1
 327 323 l 1
 346 351 l 1
 359 392 l 1
 342 462 l 1
 327 484 l 1
 298 503 l 1
 254 518 l 1
 238 518 l 1
 194 503 l 1
 165 484 l 1
 146 456 l 1
EndSplineSet
EndChar

StartChar: colon
Encoding: 58 58 21
Width: 286
VWidth: 0
Flags: W
HStem: 0 21G<119 167> 399 20G<119 167>
VStem: 78 130
LayerCount: 2
Back
Fore
SplineSet
84 385 m 1
 119 417 l 1
 156 419 l 1
 167 417 l 1
 202 385 l 1
 208 375 l 1
 210 339 l 1
 208 328 l 1
 202 319 l 1
 167 287 l 1
 130 285 l 1
 119 287 l 1
 110 293 l 1
 78 328 l 1
 76 365 l 1
 78 375 l 1
 84 385 l 1
84 100 m 1
 119 132 l 1
 156 134 l 1
 167 132 l 1
 202 100 l 1
 208 91 l 1
 210 54 l 1
 208 43 l 1
 202 34 l 1
 167 2 l 1
 130 0 l 1
 119 2 l 1
 110 8 l 1
 78 43 l 1
 76 80 l 1
 78 91 l 1
 84 100 l 1
EndSplineSet
EndChar

StartChar: semicolon
Encoding: 59 59 22
Width: 286
VWidth: 0
Flags: W
HStem: 399 20G<119 167>
VStem: 78 130
LayerCount: 2
Back
Fore
SplineSet
84 385 m 1
 119 417 l 1
 156 419 l 1
 167 417 l 1
 202 385 l 1
 208 375 l 1
 210 339 l 1
 208 328 l 1
 202 319 l 1
 167 287 l 1
 130 285 l 1
 119 287 l 1
 110 293 l 1
 78 328 l 1
 76 365 l 1
 78 375 l 1
 84 385 l 1
139 0 m 1
 119 2 l 1
 84 34 l 1
 78 43 l 1
 76 54 l 1
 76 80 l 1
 78 91 l 1
 84 100 l 1
 110 126 l 1
 119 132 l 1
 130 134 l 1
 156 134 l 1
 167 132 l 1
 176 126 l 1
 208 91 l 1
 210 2 l 1
 208 -9 l 1
 176 -70 l 1
 117 -101 l 1
 106 -104 l 1
 95 -102 l 1
 86 -97 l 1
 79 -88 l 1
 76 -78 l 1
 78 -67 l 1
 83 -57 l 1
 92 -51 l 1
 132 -30 l 1
 139 0 l 1
EndSplineSet
EndChar

StartChar: equal
Encoding: 61 61 23
Width: 647
VWidth: 0
Flags: W
HStem: 130 81<92 554> 337 82<92 554>
LayerCount: 2
Back
Fore
SplineSet
75 391 m 1
 77 401 l 1
 83 410 l 1
 92 417 l 1
 103 419 l 1
 543 419 l 1
 554 417 l 1
 563 410 l 1
 569 401 l 1
 571 365 l 1
 569 354 l 1
 563 345 l 1
 554 339 l 1
 543 337 l 1
 103 337 l 1
 92 339 l 1
 83 345 l 1
 77 354 l 1
 75 391 l 1
75 183 m 1
 77 194 l 1
 83 203 l 1
 92 209 l 1
 103 211 l 1
 543 211 l 1
 554 209 l 1
 563 203 l 1
 569 194 l 1
 571 158 l 1
 569 147 l 1
 563 138 l 1
 554 132 l 1
 543 130 l 1
 103 130 l 1
 92 132 l 1
 83 138 l 1
 77 147 l 1
 75 183 l 1
EndSplineSet
EndChar

StartChar: question
Encoding: 63 63 24
Width: 491
VWidth: 0
Flags: W
HStem: 0 21G<221 269> 518 81<211 279>
VStem: 204 82<199 276> 359 82<423 462>
LayerCount: 2
Back
Fore
SplineSet
49 442 m 1
 52 481 l 1
 77 533 l 1
 109 566 l 1
 120 573 l 1
 197 599 l 1
 284 600 l 1
 370 573 l 1
 381 566 l 1
 407 540 l 1
 438 481 l 1
 441 468 l 1
 441 417 l 1
 438 404 l 1
 412 352 l 1
 381 319 l 1
 322 288 l 1
 286 276 l 1
 286 209 l 1
 284 199 l 1
 278 190 l 1
 269 183 l 1
 258 181 l 1
 232 181 l 1
 221 183 l 1
 212 190 l 1
 206 199 l 1
 204 209 l 1
 206 324 l 1
 212 333 l 1
 221 339 l 1
 299 365 l 1
 321 376 l 1
 345 394 l 1
 359 423 l 1
 359 462 l 1
 346 488 l 1
 323 503 l 1
 279 518 l 1
 211 518 l 1
 167 503 l 1
 144 488 l 1
 130 462 l 1
 128 432 l 1
 122 423 l 1
 113 417 l 1
 77 414 l 1
 66 417 l 1
 57 423 l 1
 51 432 l 1
 49 442 l 1
186 100 m 1
 221 132 l 1
 258 134 l 1
 269 132 l 1
 304 100 l 1
 310 91 l 1
 312 54 l 1
 310 43 l 1
 304 34 l 1
 269 2 l 1
 232 0 l 1
 221 2 l 1
 212 8 l 1
 180 43 l 1
 178 80 l 1
 180 91 l 1
 186 100 l 1
EndSplineSet
EndChar

StartChar: A
Encoding: 65 65 25
Width: 517
VWidth: 0
Flags: W
HStem: 0 21G<41 88 428 476> 130 81<178 338> 580 20G<248 269>
LayerCount: 2
Back
Fore
SplineSet
23 28 m 1
 25 38 l 1
 232 583 l 1
 239 592 l 1
 248 598 l 1
 259 600 l 1
 269 598 l 1
 278 591 l 1
 284 582 l 1
 491 38 l 1
 493 27 l 1
 491 17 l 1
 476 2 l 1
 465 0 l 1
 439 0 l 1
 428 2 l 1
 419 8 l 1
 413 18 l 1
 370 130 l 1
 146 130 l 1
 103 18 l 1
 97 8 l 1
 88 2 l 1
 77 0 l 1
 41 2 l 1
 31 8 l 1
 25 17 l 1
 23 28 l 1
258 417 m 1
 178 211 l 1
 338 211 l 1
 258 417 l 1
EndSplineSet
EndChar

StartChar: B
Encoding: 66 66 26
Width: 517
VWidth: 0
Flags: W
HStem: 0 82<156 305> 259 82<156 305> 518 82<156 305>
VStem: 75 81<82 259 341 518> 385 82<138 203 397 462>
CounterMasks: 1 e0
LayerCount: 2
Back
Fore
SplineSet
75 572 m 1
 77 583 l 1
 83 592 l 1
 92 598 l 1
 103 600 l 1
 310 600 l 1
 396 573 l 1
 407 566 l 1
 438 533 l 1
 464 481 l 1
 467 468 l 1
 467 391 l 1
 464 378 l 1
 438 326 l 1
 414 300 l 1
 438 274 l 1
 464 222 l 1
 467 209 l 1
 467 132 l 1
 464 119 l 1
 438 67 l 1
 407 34 l 1
 396 27 l 1
 310 0 l 1
 103 0 l 1
 92 2 l 1
 83 8 l 1
 77 17 l 1
 75 28 l 1
 75 572 l 1
156 518 m 1
 156 341 l 1
 305 341 l 1
 368 362 l 1
 385 397 l 1
 385 462 l 1
 368 497 l 1
 305 518 l 1
 156 518 l 1
156 259 m 1
 156 82 l 1
 305 82 l 1
 368 103 l 1
 385 138 l 1
 385 203 l 1
 368 238 l 1
 305 259 l 1
 156 259 l 1
EndSplineSet
EndChar

StartChar: C
Encoding: 67 67 27
Width: 543
VWidth: 0
Flags: W
HStem: 0 82<239 329> 518 82<239 329>
VStem: 50 81<226 381.304>
LayerCount: 2
Back
Fore
SplineSet
491 146 m 1
 459 86 l 1
 407 34 l 1
 348 3 l 1
 336 0 l 1
 232 0 l 1
 220 3 l 1
 160 34 l 1
 109 86 l 1
 78 145 l 1
 50 226 l 1
 49 365 l 1
 76 451 l 1
 103 507 l 1
 160 566 l 1
 220 597 l 1
 232 600 l 1
 336 600 l 1
 348 597 l 1
 407 566 l 1
 459 514 l 1
 490 455 l 1
 493 444 l 1
 491 432 l 1
 485 423 l 1
 476 417 l 1
 465 414 l 1
 429 416 l 1
 414 430 l 1
 390 478 l 1
 371 497 l 1
 329 518 l 1
 239 518 l 1
 199 498 l 1
 154 430 l 1
 131 360 l 1
 131 240 l 1
 154 170 l 1
 199 102 l 1
 239 82 l 1
 329 82 l 1
 371 103 l 1
 390 122 l 1
 420 178 l 1
 439 186 l 1
 467 185 l 1
 485 177 l 1
 492 166 l 1
 493 156 l 1
 491 146 l 1
EndSplineSet
EndChar

StartChar: D
Encoding: 68 68 28
Width: 543
VWidth: 0
Flags: W
HStem: 0 82<156 300.318> 518 82<156 293>
VStem: 75 81<82 518> 411 82<240 360>
LayerCount: 2
Back
Fore
SplineSet
75 572 m 1
 77 583 l 1
 83 592 l 1
 92 598 l 1
 103 600 l 1
 293 599 l 1
 370 573 l 1
 381 566 l 1
 438 507 l 1
 466 451 l 1
 492 374 l 1
 493 235 l 1
 466 149 l 1
 438 93 l 1
 381 34 l 1
 370 27 l 1
 284 0 l 1
 103 0 l 1
 92 2 l 1
 83 8 l 1
 77 17 l 1
 75 28 l 1
 75 572 l 1
156 518 m 1
 156 82 l 1
 279 82 l 1
 346 104 l 1
 365 122 l 1
 387 168 l 1
 411 240 l 1
 411 360 l 1
 387 432 l 1
 365 478 l 1
 346 496 l 1
 279 518 l 1
 156 518 l 1
EndSplineSet
EndChar

StartChar: E
Encoding: 69 69 29
Width: 492
VWidth: 0
Flags: W
HStem: 0 82<157 425> 259 82<157 296> 518 82<157 425>
VStem: 75 82<82 259 341 518>
CounterMasks: 1 e0
LayerCount: 2
Back
Fore
SplineSet
75 572 m 1
 78 583 l 1
 84 592 l 1
 93 598 l 1
 103 600 l 1
 414 600 l 1
 425 598 l 1
 434 592 l 1
 440 583 l 1
 442 546 l 1
 440 535 l 1
 434 526 l 1
 425 520 l 1
 414 518 l 1
 157 518 l 1
 157 341 l 1
 296 339 l 1
 305 333 l 1
 311 324 l 1
 313 287 l 1
 311 276 l 1
 305 267 l 1
 296 261 l 1
 285 259 l 1
 157 259 l 1
 157 82 l 1
 414 82 l 1
 425 80 l 1
 434 74 l 1
 440 65 l 1
 442 28 l 1
 440 17 l 1
 434 8 l 1
 425 2 l 1
 414 0 l 1
 103 0 l 1
 93 2 l 1
 84 8 l 1
 78 17 l 1
 75 28 l 1
 75 572 l 1
EndSplineSet
EndChar

StartChar: F
Encoding: 70 70 30
Width: 466
VWidth: 0
Flags: W
HStem: 0 21G<93 140> 259 82<157 296> 518 82<157 425>
VStem: 75 82<17 259 341 518>
LayerCount: 2
Back
Fore
SplineSet
75 572 m 1
 78 583 l 1
 84 592 l 1
 93 598 l 1
 103 600 l 1
 414 600 l 1
 425 598 l 1
 434 592 l 1
 440 583 l 1
 442 572 l 1
 440 535 l 1
 434 526 l 1
 425 520 l 1
 414 518 l 1
 157 518 l 1
 157 341 l 1
 296 339 l 1
 305 333 l 1
 311 324 l 1
 313 287 l 1
 311 276 l 1
 305 267 l 1
 296 261 l 1
 285 259 l 1
 157 259 l 1
 157 28 l 1
 155 17 l 1
 149 8 l 1
 140 2 l 1
 129 0 l 1
 93 2 l 1
 84 8 l 1
 78 17 l 1
 75 28 l 1
 75 572 l 1
EndSplineSet
EndChar

StartChar: G
Encoding: 71 71 31
Width: 543
VWidth: 0
Flags: W
HStem: 0 82<239 329> 209 80<325 411> 518 82<239 329>
VStem: 49 82<218.087 381.913> 411 82<164 207>
LayerCount: 2
Back
Fore
SplineSet
308 261 m 1
 310 272 l 1
 316 281 l 1
 325 287 l 1
 336 289 l 1
 476 287 l 1
 485 281 l 1
 491 272 l 1
 493 261 l 1
 493 158 l 1
 490 145 l 1
 459 86 l 1
 400 29 l 1
 348 3 l 1
 336 0 l 1
 232 0 l 1
 220 3 l 1
 160 34 l 1
 109 86 l 1
 78 145 l 1
 49 235 l 1
 49 365 l 1
 76 451 l 1
 109 514 l 1
 160 566 l 1
 220 597 l 1
 232 600 l 1
 336 600 l 1
 348 597 l 1
 400 571 l 1
 459 514 l 1
 491 453 l 1
 493 442 l 1
 491 432 l 1
 478 417 l 1
 465 414 l 1
 429 416 l 1
 414 430 l 1
 390 478 l 1
 371 497 l 1
 329 518 l 1
 239 518 l 1
 197 497 l 1
 177 478 l 1
 154 432 l 1
 131 360 l 1
 131 240 l 1
 154 168 l 1
 177 122 l 1
 197 103 l 1
 239 82 l 1
 329 82 l 1
 371 103 l 1
 390 122 l 1
 411 164 l 1
 411 207 l 1
 325 209 l 1
 316 215 l 1
 310 225 l 1
 308 261 l 1
EndSplineSet
EndChar

StartChar: H
Encoding: 72 72 32
Width: 569
VWidth: 0
Flags: W
HStem: 0 21G<92 139 429 476> 259 82<157 411> 580 20G<92 139 429 476>
VStem: 75 82<17 259 341 583> 411 82<17 259 341 583>
LayerCount: 2
Back
Fore
SplineSet
75 572 m 1
 77 583 l 1
 83 592 l 1
 92 598 l 1
 103 600 l 1
 139 598 l 1
 148 592 l 1
 154 583 l 1
 157 572 l 1
 157 341 l 1
 411 341 l 1
 411 572 l 1
 414 583 l 1
 420 592 l 1
 429 598 l 1
 439 600 l 1
 465 600 l 1
 476 598 l 1
 485 592 l 1
 491 583 l 1
 493 572 l 1
 493 28 l 1
 491 17 l 1
 485 8 l 1
 476 2 l 1
 465 0 l 1
 439 0 l 1
 429 2 l 1
 420 8 l 1
 414 17 l 1
 411 28 l 1
 411 259 l 1
 157 259 l 1
 157 28 l 1
 154 17 l 1
 148 8 l 1
 139 2 l 1
 129 0 l 1
 103 0 l 1
 92 2 l 1
 83 8 l 1
 77 17 l 1
 75 28 l 1
 75 572 l 1
EndSplineSet
EndChar

StartChar: I
Encoding: 73 73 33
Width: 235
VWidth: 0
Flags: W
HStem: 0 21G<93 141> 580 20G<93 141>
VStem: 76 82<17 583>
LayerCount: 2
Back
Fore
SplineSet
76 572 m 1
 78 583 l 1
 84 592 l 1
 93 598 l 1
 130 600 l 1
 141 598 l 1
 150 592 l 1
 156 583 l 1
 158 572 l 1
 158 28 l 1
 156 17 l 1
 150 8 l 1
 141 2 l 1
 130 0 l 1
 93 2 l 1
 84 8 l 1
 78 17 l 1
 76 28 l 1
 76 572 l 1
EndSplineSet
EndChar

StartChar: J
Encoding: 74 74 34
Width: 440
VWidth: 0
Flags: W
HStem: 0 82<187 225> 580 20G<299 346>
VStem: 282 82<162 583>
LayerCount: 2
Back
Fore
SplineSet
49 159 m 1
 51 170 l 1
 66 183 l 1
 102 186 l 1
 114 183 l 1
 123 176 l 1
 129 166 l 1
 151 100 l 1
 187 82 l 1
 225 82 l 1
 261 100 l 1
 282 162 l 1
 282 572 l 1
 284 583 l 1
 290 592 l 1
 299 598 l 1
 336 600 l 1
 346 598 l 1
 355 592 l 1
 361 583 l 1
 364 572 l 1
 364 158 l 1
 336 71 l 1
 329 60 l 1
 296 29 l 1
 244 3 l 1
 232 0 l 1
 180 0 l 1
 168 3 l 1
 116 29 l 1
 83 60 l 1
 76 71 l 1
 49 159 l 1
EndSplineSet
EndChar

StartChar: K
Encoding: 75 75 35
Width: 543
VWidth: 0
Flags: W
HStem: 0 21G<92 146 427 472> 580 20G<92 139 429 476>
VStem: 75 81<17 224 329 583>
LayerCount: 2
Back
Fore
SplineSet
75 572 m 1
 77 583 l 1
 83 592 l 1
 92 598 l 1
 103 600 l 1
 139 598 l 1
 148 592 l 1
 154 583 l 1
 156 572 l 1
 156 329 l 1
 420 592 l 1
 429 598 l 1
 439 600 l 1
 465 600 l 1
 476 598 l 1
 485 592 l 1
 491 583 l 1
 493 572 l 1
 491 561 l 1
 485 552 l 1
 269 336 l 1
 488 45 l 1
 492 35 l 1
 493 24 l 1
 489 14 l 1
 482 6 l 1
 472 1 l 1
 439 0 l 1
 427 3 l 1
 417 11 l 1
 214 281 l 1
 156 224 l 1
 156 28 l 1
 154 17 l 1
 146 7 l 1
 128 0 l 1
 103 0 l 1
 92 2 l 1
 83 8 l 1
 77 17 l 1
 75 28 l 1
 75 572 l 1
EndSplineSet
EndChar

StartChar: L
Encoding: 76 76 36
Width: 440
VWidth: 0
Flags: W
HStem: 0 82<157 425> 580 20G<93 140>
VStem: 75 82<82 583>
LayerCount: 2
Back
Fore
SplineSet
75 572 m 1
 78 583 l 1
 84 592 l 1
 93 598 l 1
 129 600 l 1
 140 598 l 1
 149 592 l 1
 155 583 l 1
 157 572 l 1
 157 82 l 1
 414 82 l 1
 425 80 l 1
 434 74 l 1
 440 65 l 1
 442 28 l 1
 440 17 l 1
 434 8 l 1
 425 2 l 1
 414 0 l 1
 103 0 l 1
 93 2 l 1
 84 8 l 1
 78 17 l 1
 75 28 l 1
 75 572 l 1
EndSplineSet
EndChar

StartChar: M
Encoding: 77 77 37
Width: 621
VWidth: 0
Flags: W
HStem: 0 21G<92 139 299 321 481 528> 580 20G<92 113 507 528>
VStem: 75 82<17 309> 463 82<17 309>
LayerCount: 2
Back
Fore
SplineSet
75 28 m 1
 75 572 l 1
 82 591 l 1
 92 598 l 1
 103 600 l 1
 113 598 l 1
 128 583 l 1
 310 175 l 1
 492 583 l 1
 507 598 l 1
 517 600 l 1
 528 598 l 1
 537 592 l 1
 543 583 l 1
 545 572 l 1
 545 28 l 1
 543 17 l 1
 537 8 l 1
 528 2 l 1
 517 0 l 1
 491 0 l 1
 481 2 l 1
 472 8 l 1
 465 17 l 1
 463 28 l 1
 463 309 l 1
 336 17 l 1
 321 2 l 1
 309 0 l 1
 299 2 l 1
 284 17 l 1
 157 309 l 1
 157 28 l 1
 155 17 l 1
 148 8 l 1
 139 2 l 1
 103 0 l 1
 92 2 l 1
 83 8 l 1
 77 17 l 1
 75 28 l 1
EndSplineSet
EndChar

StartChar: N
Encoding: 78 78 38
Width: 569
VWidth: 0
Flags: W
HStem: 0 21G<92 139 451 476> 580 20G<86 117 429 476>
VStem: 75 82<17 408> 411 82<192 583>
LayerCount: 2
Back
Fore
SplineSet
75 28 m 1
 75 572 l 1
 79 587 l 1
 86 595 l 1
 103 600 l 1
 117 596 l 1
 125 588 l 1
 411 192 l 1
 411 572 l 1
 414 583 l 1
 420 592 l 1
 429 598 l 1
 465 600 l 1
 476 598 l 1
 485 592 l 1
 491 583 l 1
 493 572 l 1
 493 28 l 1
 489 13 l 1
 476 2 l 1
 465 0 l 1
 451 4 l 1
 443 12 l 1
 157 408 l 1
 157 28 l 1
 154 17 l 1
 148 8 l 1
 139 2 l 1
 103 0 l 1
 92 2 l 1
 83 8 l 1
 77 17 l 1
 75 28 l 1
EndSplineSet
EndChar

StartChar: O
Encoding: 79 79 39
Width: 569
VWidth: 0
Flags: W
HStem: 0 82<241.333 326.667> 518 82<241.333 326.667>
VStem: 50 81<226 381.304> 437 82<218.696 374>
LayerCount: 2
Back
Fore
SplineSet
168 571 m 1
 230 600 l 1
 336 600 l 1
 348 597 l 1
 400 571 l 1
 464 507 l 1
 492 451 l 1
 518 374 l 1
 519 235 l 1
 490 145 l 1
 459 86 l 1
 407 34 l 1
 348 3 l 1
 336 0 l 1
 232 0 l 1
 220 3 l 1
 161 34 l 1
 104 93 l 1
 76 149 l 1
 50 226 l 1
 49 365 l 1
 76 451 l 1
 109 514 l 1
 168 571 l 1
263 518 m 1
 198 497 l 1
 154 430 l 1
 131 360 l 1
 131 240 l 1
 154 170 l 1
 198 103 l 1
 263 82 l 1
 305 82 l 1
 370 103 l 1
 414 170 l 1
 437 240 l 1
 437 360 l 1
 414 430 l 1
 370 497 l 1
 305 518 l 1
 263 518 l 1
EndSplineSet
EndChar

StartChar: P
Encoding: 80 80 40
Width: 517
VWidth: 0
Flags: W
HStem: 0 21G<92 139> 259 82<156 329> 518 82<156 329>
VStem: 75 81<17 259 341 518> 385 82<397 462>
LayerCount: 2
Back
Fore
SplineSet
75 572 m 1
 77 583 l 1
 83 592 l 1
 92 598 l 1
 103 600 l 1
 336 600 l 1
 348 597 l 1
 400 571 l 1
 433 540 l 1
 464 481 l 1
 467 468 l 1
 467 391 l 1
 464 378 l 1
 438 326 l 1
 400 288 l 1
 348 262 l 1
 336 259 l 1
 156 259 l 1
 156 28 l 1
 154 17 l 1
 148 8 l 1
 139 2 l 1
 128 0 l 1
 92 2 l 1
 83 8 l 1
 77 17 l 1
 75 28 l 1
 75 572 l 1
156 518 m 1
 156 341 l 1
 329 341 l 1
 367 360 l 1
 385 397 l 1
 385 462 l 1
 367 499 l 1
 329 518 l 1
 156 518 l 1
EndSplineSet
EndChar

StartChar: Q
Encoding: 81 81 41
Width: 569
VWidth: 0
Flags: W
HStem: 0 82<241.333 294> 518 82<241.333 326.667>
VStem: 49 82<218.696 374> 437 82<218.696 381.304>
LayerCount: 2
Back
Fore
SplineSet
168 571 m 1
 230 600 l 1
 336 600 l 1
 348 597 l 1
 407 566 l 1
 459 514 l 1
 490 455 l 1
 519 365 l 1
 519 235 l 1
 492 149 l 1
 464 93 l 1
 427 54 l 1
 491 -13 l 1
 493 -24 l 1
 491 -35 l 1
 485 -44 l 1
 476 -50 l 1
 439 -52 l 1
 429 -50 l 1
 365 11 l 1
 336 0 l 1
 232 0 l 1
 220 3 l 1
 161 34 l 1
 109 86 l 1
 78 145 l 1
 49 235 l 1
 50 374 l 1
 76 451 l 1
 104 507 l 1
 168 571 l 1
263 518 m 1
 198 497 l 1
 154 430 l 1
 131 360 l 1
 131 240 l 1
 154 170 l 1
 198 103 l 1
 263 82 l 1
 294 82 l 1
 284 95 l 1
 282 106 l 1
 284 116 l 1
 290 126 l 1
 299 132 l 1
 310 134 l 1
 347 132 l 1
 373 108 l 1
 414 170 l 1
 437 240 l 1
 437 360 l 1
 414 430 l 1
 370 497 l 1
 305 518 l 1
 263 518 l 1
EndSplineSet
EndChar

StartChar: R
Encoding: 82 82 42
Width: 517
VWidth: 0
Flags: W
HStem: 0 21G<92 139 404 454> 259 82<156 242> 518 82<156 305>
VStem: 75 81<17 259 341 518> 385 82<397 462>
LayerCount: 2
Back
Fore
SplineSet
75 572 m 1
 77 583 l 1
 83 592 l 1
 92 598 l 1
 103 600 l 1
 310 600 l 1
 396 573 l 1
 407 566 l 1
 438 533 l 1
 464 481 l 1
 467 468 l 1
 467 391 l 1
 464 378 l 1
 438 326 l 1
 407 293 l 1
 396 286 l 1
 330 264 l 1
 465 39 l 1
 467 28 l 1
 465 17 l 1
 454 4 l 1
 443 0 l 1
 413 0 l 1
 404 2 l 1
 389 14 l 1
 242 259 l 1
 156 259 l 1
 156 28 l 1
 154 17 l 1
 148 8 l 1
 139 2 l 1
 128 0 l 1
 92 2 l 1
 83 8 l 1
 77 17 l 1
 75 28 l 1
 75 572 l 1
156 518 m 1
 156 341 l 1
 305 341 l 1
 368 362 l 1
 385 397 l 1
 385 462 l 1
 368 497 l 1
 305 518 l 1
 156 518 l 1
EndSplineSet
EndChar

StartChar: S
Encoding: 83 83 43
Width: 517
VWidth: 0
Flags: W
HStem: 0 82<213 326.318> 518 81<197 303>
VStem: 49 82<449 483> 385 82<117 177>
LayerCount: 2
Back
Fore
SplineSet
49 106 m 1
 51 116 l 1
 57 126 l 1
 66 132 l 1
 128 134 l 1
 139 132 l 1
 148 126 l 1
 171 103 l 1
 213 82 l 1
 305 82 l 1
 372 104 l 1
 385 117 l 1
 385 177 l 1
 365 219 l 1
 345 238 l 1
 298 261 l 1
 170 313 l 1
 116 340 l 1
 83 371 l 1
 52 430 l 1
 49 442 l 1
 49 494 l 1
 51 505 l 1
 57 514 l 1
 109 566 l 1
 120 573 l 1
 197 599 l 1
 310 600 l 1
 396 573 l 1
 407 566 l 1
 465 505 l 1
 467 494 l 1
 465 484 l 1
 459 474 l 1
 450 468 l 1
 439 466 l 1
 377 468 l 1
 345 497 l 1
 303 518 l 1
 211 518 l 1
 144 496 l 1
 131 483 l 1
 131 449 l 1
 149 412 l 1
 192 390 l 1
 320 339 l 1
 374 312 l 1
 433 255 l 1
 464 196 l 1
 467 183 l 1
 467 106 l 1
 465 95 l 1
 459 86 l 1
 407 34 l 1
 396 27 l 1
 310 0 l 1
 206 0 l 1
 120 27 l 1
 109 34 l 1
 57 86 l 1
 51 95 l 1
 49 106 l 1
EndSplineSet
EndChar

StartChar: T
Encoding: 84 84 44
Width: 439
VWidth: 0
Flags: W
HStem: 0 21G<195 243> 520 80<40 178 260 398>
VStem: 178 82<17 518>
LayerCount: 2
Back
Fore
SplineSet
23 572 m 1
 25 583 l 1
 31 592 l 1
 40 598 l 1
 51 600 l 1
 387 600 l 1
 398 598 l 1
 407 592 l 1
 413 583 l 1
 415 546 l 1
 413 535 l 1
 407 526 l 1
 398 520 l 1
 260 518 l 1
 260 28 l 1
 258 17 l 1
 252 8 l 1
 243 2 l 1
 206 0 l 1
 195 2 l 1
 186 8 l 1
 180 17 l 1
 178 28 l 1
 178 518 l 1
 40 520 l 1
 31 526 l 1
 25 535 l 1
 23 572 l 1
EndSplineSet
EndChar

StartChar: U
Encoding: 85 85 45
Width: 569
VWidth: 0
Flags: W
HStem: 1 81<249 319> 580 20G<92 139 429 476>
VStem: 75 82<166.682 583> 411 81<175 583>
LayerCount: 2
Back
Fore
SplineSet
75 572 m 1
 77 583 l 1
 83 592 l 1
 92 598 l 1
 103 600 l 1
 139 598 l 1
 148 592 l 1
 154 583 l 1
 157 572 l 1
 157 188 l 1
 179 121 l 1
 196 104 l 1
 263 82 l 1
 305 82 l 1
 372 104 l 1
 389 121 l 1
 411 188 l 1
 411 572 l 1
 414 583 l 1
 420 592 l 1
 429 598 l 1
 439 600 l 1
 476 598 l 1
 485 592 l 1
 491 583 l 1
 493 572 l 1
 492 175 l 1
 466 97 l 1
 459 86 l 1
 407 34 l 1
 396 27 l 1
 319 1 l 1
 249 1 l 1
 172 27 l 1
 161 34 l 1
 109 86 l 1
 102 97 l 1
 75 183 l 1
 75 572 l 1
EndSplineSet
EndChar

StartChar: V
Encoding: 86 86 46
Width: 517
VWidth: 0
Flags: W
HStem: 0 21G<248 269> 580 20G<40 88 428 475>
LayerCount: 2
Back
Fore
SplineSet
23 572 m 1
 25 583 l 1
 31 592 l 1
 40 598 l 1
 51 600 l 1
 88 598 l 1
 97 592 l 1
 103 582 l 1
 258 183 l 1
 413 582 l 1
 419 592 l 1
 428 598 l 1
 439 600 l 1
 475 598 l 1
 484 592 l 1
 491 583 l 1
 493 573 l 1
 491 562 l 1
 284 18 l 1
 278 9 l 1
 269 2 l 1
 259 0 l 1
 248 2 l 1
 239 8 l 1
 232 17 l 1
 25 562 l 1
 23 572 l 1
EndSplineSet
EndChar

StartChar: W
Encoding: 87 87 47
Width: 675
VWidth: 0
Flags: W
HStem: 1 20G<186 230 459 484> 580 20G<41 90 330 354 584 630>
LayerCount: 2
Back
Fore
SplineSet
24 574 m 1
 32 592 l 1
 41 598 l 1
 52 600 l 1
 90 597 l 1
 99 590 l 1
 105 579 l 1
 207 210 l 1
 310 579 l 1
 315 589 l 1
 330 599 l 1
 340 600 l 1
 354 594 l 1
 364 579 l 1
 467 210 l 1
 569 579 l 1
 575 590 l 1
 584 597 l 1
 596 600 l 1
 630 599 l 1
 642 592 l 1
 648 583 l 1
 649 564 l 1
 493 20 l 1
 484 6 l 1
 470 0 l 1
 459 1 l 1
 449 6 l 1
 440 21 l 1
 337 390 l 1
 234 21 l 1
 230 11 l 1
 215 1 l 1
 200 1 l 1
 186 11 l 1
 181 20 l 1
 24 574 l 1
EndSplineSet
EndChar

StartChar: X
Encoding: 88 88 48
Width: 517
VWidth: 0
Flags: W
HStem: 0 21G<62 120 396 454> 580 20G<66 120 396 454>
LayerCount: 2
Back
Fore
SplineSet
49 570 m 1
 54 588 l 1
 66 598 l 1
 103 600 l 1
 120 594 l 1
 258 374 l 1
 396 594 l 1
 413 600 l 1
 444 600 l 1
 454 596 l 1
 462 588 l 1
 467 572 l 1
 463 557 l 1
 304 300 l 1
 465 39 l 1
 467 28 l 1
 465 17 l 1
 454 4 l 1
 444 0 l 1
 413 0 l 1
 396 6 l 1
 258 226 l 1
 120 6 l 1
 103 0 l 1
 72 0 l 1
 62 4 l 1
 54 12 l 1
 49 28 l 1
 53 43 l 1
 212 300 l 1
 53 557 l 1
 49 570 l 1
EndSplineSet
EndChar

StartChar: Y
Encoding: 89 89 49
Width: 493
VWidth: 0
Flags: W
HStem: 0 21G<222 270> 580 20G<41 91 401 456>
VStem: 205 82<17 304>
LayerCount: 2
Back
Fore
SplineSet
24 574 m 1
 28 587 l 1
 41 598 l 1
 78 600 l 1
 91 597 l 1
 101 588 l 1
 246 380 l 1
 391 588 l 1
 401 597 l 1
 414 600 l 1
 440 600 l 1
 456 595 l 1
 466 583 l 1
 468 566 l 1
 463 556 l 1
 287 304 l 1
 287 28 l 1
 285 17 l 1
 279 8 l 1
 270 2 l 1
 233 0 l 1
 222 2 l 1
 213 8 l 1
 207 17 l 1
 205 28 l 1
 205 304 l 1
 29 556 l 1
 24 574 l 1
EndSplineSet
EndChar

StartChar: Z
Encoding: 90 90 50
Width: 517
VWidth: 0
Flags: W
HStem: 0 82<169 450> 518 82<66 347>
LayerCount: 2
Back
Fore
SplineSet
49 572 m 1
 51 583 l 1
 57 592 l 1
 66 598 l 1
 77 600 l 1
 439 600 l 1
 450 598 l 1
 462 588 l 1
 467 572 l 1
 463 557 l 1
 169 82 l 1
 439 82 l 1
 450 80 l 1
 459 74 l 1
 465 65 l 1
 467 54 l 1
 467 28 l 1
 465 17 l 1
 459 8 l 1
 450 2 l 1
 439 0 l 1
 77 0 l 1
 62 4 l 1
 54 12 l 1
 49 28 l 1
 53 43 l 1
 347 518 l 1
 77 518 l 1
 66 520 l 1
 57 526 l 1
 51 535 l 1
 49 572 l 1
EndSplineSet
EndChar

StartChar: a
Encoding: 97 97 51
Width: 518
VWidth: 0
Flags: W
HStem: 0 82<214 278> 337 82<214 278>
VStem: 51 81<175 244> 361 81<123 296>
LayerCount: 2
Back
Fore
SplineSet
389 419 m 1
 425 417 l 1
 434 410 l 1
 440 401 l 1
 442 391 l 1
 442 28 l 1
 440 17 l 1
 434 8 l 1
 425 2 l 1
 389 0 l 1
 378 2 l 1
 369 8 l 1
 363 17 l 1
 361 38 l 1
 349 29 l 1
 297 3 l 1
 285 0 l 1
 207 0 l 1
 195 3 l 1
 143 29 l 1
 84 86 l 1
 77 97 l 1
 51 175 l 1
 51 244 l 1
 77 322 l 1
 84 333 l 1
 136 385 l 1
 195 416 l 1
 207 419 l 1
 285 419 l 1
 297 416 l 1
 349 390 l 1
 361 381 l 1
 363 401 l 1
 369 410 l 1
 378 417 l 1
 389 419 l 1
361 296 m 1
 278 337 l 1
 214 337 l 1
 172 316 l 1
 154 298 l 1
 132 231 l 1
 132 188 l 1
 154 121 l 1
 172 103 l 1
 214 82 l 1
 278 82 l 1
 361 123 l 1
 361 296 l 1
EndSplineSet
EndChar

StartChar: b
Encoding: 98 98 52
Width: 517
VWidth: 0
Flags: W
HStem: 0 82<239 303> 337 82<239 303> 580 20G<92 139>
VStem: 75 81<123 296 381 583> 385 82<166.682 244>
LayerCount: 2
Back
Fore
SplineSet
75 572 m 1
 77 583 l 1
 83 592 l 1
 92 598 l 1
 103 600 l 1
 139 598 l 1
 148 592 l 1
 154 583 l 1
 156 572 l 1
 156 381 l 1
 168 390 l 1
 220 416 l 1
 232 419 l 1
 310 419 l 1
 322 416 l 1
 381 385 l 1
 433 333 l 1
 440 322 l 1
 466 244 l 1
 467 183 l 1
 440 97 l 1
 433 86 l 1
 381 34 l 1
 322 3 l 1
 310 0 l 1
 232 0 l 1
 220 3 l 1
 168 29 l 1
 156 38 l 1
 154 17 l 1
 148 8 l 1
 139 2 l 1
 103 0 l 1
 92 2 l 1
 83 8 l 1
 77 17 l 1
 75 28 l 1
 75 572 l 1
156 123 m 1
 239 82 l 1
 303 82 l 1
 345 103 l 1
 363 121 l 1
 385 188 l 1
 385 231 l 1
 363 298 l 1
 345 316 l 1
 303 337 l 1
 239 337 l 1
 156 296 l 1
 156 123 l 1
EndSplineSet
EndChar

StartChar: c
Encoding: 99 99 53
Width: 466
VWidth: 0
Flags: W
HStem: 0 82<214 278> 337 82<214 278>
VStem: 51 80<188 231>
LayerCount: 2
Back
Fore
SplineSet
408 333 m 1
 414 324 l 1
 416 313 l 1
 414 302 l 1
 382 267 l 1
 363 259 l 1
 344 266 l 1
 316 318 l 1
 278 337 l 1
 214 337 l 1
 172 316 l 1
 154 298 l 1
 131 231 l 1
 131 188 l 1
 154 121 l 1
 172 103 l 1
 214 82 l 1
 278 82 l 1
 316 101 l 1
 344 153 l 1
 363 160 l 1
 382 151 l 1
 414 116 l 1
 416 106 l 1
 414 95 l 1
 356 34 l 1
 297 3 l 1
 285 0 l 1
 207 0 l 1
 195 3 l 1
 143 29 l 1
 84 86 l 1
 77 97 l 1
 51 175 l 1
 51 244 l 1
 77 322 l 1
 84 333 l 1
 135 385 l 1
 195 416 l 1
 207 419 l 1
 285 419 l 1
 297 416 l 1
 349 390 l 1
 408 333 l 1
EndSplineSet
EndChar

StartChar: d
Encoding: 100 100 54
Width: 518
VWidth: 0
Flags: W
HStem: 0 82<214 278> 337 82<214 278> 580 20G<378 425>
VStem: 51 81<175 244> 361 81<123 296 381 583>
LayerCount: 2
Back
Fore
SplineSet
389 600 m 1
 425 598 l 1
 434 592 l 1
 440 583 l 1
 442 572 l 1
 442 28 l 1
 440 17 l 1
 434 8 l 1
 425 2 l 1
 389 0 l 1
 378 2 l 1
 369 8 l 1
 363 17 l 1
 361 38 l 1
 349 29 l 1
 297 3 l 1
 285 0 l 1
 207 0 l 1
 195 3 l 1
 136 34 l 1
 84 86 l 1
 77 97 l 1
 51 175 l 1
 51 244 l 1
 77 322 l 1
 84 333 l 1
 136 385 l 1
 195 416 l 1
 207 419 l 1
 285 419 l 1
 297 416 l 1
 349 390 l 1
 361 381 l 1
 361 572 l 1
 363 583 l 1
 369 592 l 1
 378 598 l 1
 389 600 l 1
361 296 m 1
 278 337 l 1
 214 337 l 1
 172 316 l 1
 154 298 l 1
 132 231 l 1
 132 188 l 1
 154 121 l 1
 172 103 l 1
 214 82 l 1
 278 82 l 1
 361 123 l 1
 361 296 l 1
EndSplineSet
EndChar

StartChar: e
Encoding: 101 101 55
Width: 466
VWidth: 0
Flags: W
HStem: 0 82<214 278> 181 82<142 335> 337 82<214 278>
LayerCount: 2
Back
Fore
SplineSet
408 126 m 1
 414 116 l 1
 416 106 l 1
 414 95 l 1
 408 86 l 1
 356 34 l 1
 297 3 l 1
 285 0 l 1
 207 0 l 1
 195 3 l 1
 143 29 l 1
 84 86 l 1
 77 97 l 1
 51 175 l 1
 51 244 l 1
 77 322 l 1
 84 333 l 1
 135 385 l 1
 195 416 l 1
 207 419 l 1
 285 419 l 1
 297 416 l 1
 349 390 l 1
 388 351 l 1
 413 300 l 1
 416 287 l 1
 416 209 l 1
 414 199 l 1
 408 190 l 1
 399 183 l 1
 388 181 l 1
 134 181 l 1
 154 121 l 1
 172 103 l 1
 214 82 l 1
 278 82 l 1
 316 101 l 1
 337 144 l 1
 353 158 l 1
 374 157 l 1
 408 126 l 1
142 263 m 1
 335 263 l 1
 335 280 l 1
 316 318 l 1
 278 337 l 1
 214 337 l 1
 172 316 l 1
 154 298 l 1
 142 263 l 1
EndSplineSet
EndChar

StartChar: f
Encoding: 102 102 56
Width: 363
VWidth: 0
Flags: W
HStem: 0 21G<144 192> 337 82<67 127 209 269> 518 82<239 295>
VStem: 127 82<17 337 419 464>
LayerCount: 2
Back
Fore
SplineSet
49 391 m 1
 51 401 l 1
 57 410 l 1
 67 417 l 1
 127 419 l 1
 128 477 l 1
 160 564 l 1
 220 597 l 1
 233 600 l 1
 285 600 l 1
 295 598 l 1
 304 592 l 1
 310 583 l 1
 313 572 l 1
 313 546 l 1
 310 535 l 1
 304 526 l 1
 295 520 l 1
 285 518 l 1
 239 518 l 1
 225 511 l 1
 209 464 l 1
 209 419 l 1
 259 419 l 1
 269 417 l 1
 278 410 l 1
 284 401 l 1
 287 391 l 1
 287 365 l 1
 284 354 l 1
 278 345 l 1
 269 339 l 1
 209 337 l 1
 209 28 l 1
 207 17 l 1
 201 8 l 1
 192 2 l 1
 155 0 l 1
 144 2 l 1
 135 8 l 1
 129 17 l 1
 127 28 l 1
 127 337 l 1
 77 337 l 1
 67 339 l 1
 57 345 l 1
 51 354 l 1
 49 365 l 1
 49 391 l 1
EndSplineSet
EndChar

StartChar: g
Encoding: 103 103 57
Width: 517
VWidth: 0
Flags: W
HStem: -181 82<239 277> 0 82<213 277> 337 82<213 277>
VStem: 50 81<175 252.318> 360 81<7 38 123 296>
LayerCount: 2
Back
Fore
SplineSet
75 -76 m 1
 77 -65 l 1
 83 -56 l 1
 92 -50 l 1
 154 -48 l 1
 165 -50 l 1
 174 -56 l 1
 197 -79 l 1
 239 -99 l 1
 277 -99 l 1
 319 -79 l 1
 337 -60 l 1
 360 7 l 1
 360 38 l 1
 348 29 l 1
 296 3 l 1
 284 0 l 1
 206 0 l 1
 194 3 l 1
 135 34 l 1
 83 86 l 1
 76 97 l 1
 50 175 l 1
 49 235 l 1
 76 322 l 1
 83 333 l 1
 142 390 l 1
 194 416 l 1
 206 419 l 1
 284 419 l 1
 296 416 l 1
 348 390 l 1
 360 381 l 1
 362 401 l 1
 368 410 l 1
 377 417 l 1
 413 419 l 1
 424 417 l 1
 433 410 l 1
 439 401 l 1
 441 391 l 1
 441 2 l 1
 414 -84 l 1
 407 -95 l 1
 356 -147 l 1
 296 -178 l 1
 284 -181 l 1
 206 -181 l 1
 194 -178 l 1
 135 -147 l 1
 83 -95 l 1
 77 -86 l 1
 75 -76 l 1
360 123 m 1
 360 296 l 1
 277 337 l 1
 213 337 l 1
 171 316 l 1
 153 298 l 1
 131 231 l 1
 131 188 l 1
 153 121 l 1
 171 103 l 1
 213 82 l 1
 277 82 l 1
 360 123 l 1
EndSplineSet
EndChar

StartChar: h
Encoding: 104 104 58
Width: 517
VWidth: 0
Flags: W
HStem: 0 21G<92 139 377 424> 337 82<265 303> 580 20G<92 139>
VStem: 75 81<17 272 355 583> 360 81<17 280>
LayerCount: 2
Back
Fore
SplineSet
75 572 m 1
 77 583 l 1
 83 592 l 1
 92 598 l 1
 103 600 l 1
 139 598 l 1
 148 592 l 1
 154 583 l 1
 156 572 l 1
 156 355 l 1
 194 390 l 1
 245 416 l 1
 258 419 l 1
 336 419 l 1
 348 416 l 1
 409 383 l 1
 414 374 l 1
 441 287 l 1
 441 28 l 1
 439 17 l 1
 433 8 l 1
 424 2 l 1
 388 0 l 1
 377 2 l 1
 368 8 l 1
 362 17 l 1
 360 28 l 1
 360 280 l 1
 341 318 l 1
 303 337 l 1
 265 337 l 1
 220 315 l 1
 156 272 l 1
 156 28 l 1
 154 17 l 1
 148 8 l 1
 139 2 l 1
 103 0 l 1
 92 2 l 1
 83 8 l 1
 77 17 l 1
 75 28 l 1
 75 572 l 1
EndSplineSet
EndChar

StartChar: i
Encoding: 105 105 59
Width: 235
VWidth: 0
Flags: W
HStem: 0 21G<93 141> 399 20G<93 141> 580 20G<93 141>
VStem: 76 82<17 401>
LayerCount: 2
Back
Fore
SplineSet
58 566 m 1
 93 598 l 1
 130 600 l 1
 141 598 l 1
 176 566 l 1
 182 557 l 1
 184 520 l 1
 182 509 l 1
 176 500 l 1
 141 468 l 1
 104 466 l 1
 93 468 l 1
 58 500 l 1
 52 509 l 1
 50 546 l 1
 52 557 l 1
 58 566 l 1
76 391 m 1
 78 401 l 1
 84 410 l 1
 93 417 l 1
 130 419 l 1
 141 417 l 1
 150 410 l 1
 156 401 l 1
 158 391 l 1
 158 28 l 1
 156 17 l 1
 150 8 l 1
 141 2 l 1
 130 0 l 1
 93 2 l 1
 84 8 l 1
 78 17 l 1
 76 28 l 1
 76 391 l 1
EndSplineSet
EndChar

StartChar: j
Encoding: 106 106 60
Width: 235
VWidth: 0
Flags: W
HStem: -181 21G<93 141> 399 20G<93 141> 580 20G<93 141>
VStem: 76 82<-164 401>
LayerCount: 2
Back
Fore
SplineSet
58 566 m 1
 93 598 l 1
 130 600 l 1
 141 598 l 1
 176 566 l 1
 182 557 l 1
 184 520 l 1
 182 509 l 1
 176 500 l 1
 141 468 l 1
 104 466 l 1
 93 468 l 1
 58 500 l 1
 52 509 l 1
 50 546 l 1
 52 557 l 1
 58 566 l 1
76 391 m 1
 78 401 l 1
 84 410 l 1
 93 417 l 1
 130 419 l 1
 141 417 l 1
 150 410 l 1
 156 401 l 1
 158 391 l 1
 158 -153 l 1
 156 -164 l 1
 150 -173 l 1
 141 -179 l 1
 130 -181 l 1
 93 -179 l 1
 84 -173 l 1
 78 -164 l 1
 76 -153 l 1
 76 391 l 1
EndSplineSet
EndChar

StartChar: k
Encoding: 107 107 61
Width: 491
VWidth: 0
Flags: W
HStem: 0 21G<92 139 350 432> 399 20G<377 430> 580 20G<92 139>
VStem: 75 81<17 94 199 583>
LayerCount: 2
Back
Fore
SplineSet
75 572 m 1
 77 583 l 1
 83 592 l 1
 92 598 l 1
 103 600 l 1
 139 598 l 1
 148 592 l 1
 154 583 l 1
 156 572 l 1
 156 199 l 1
 368 410 l 1
 377 417 l 1
 388 419 l 1
 413 419 l 1
 430 413 l 1
 439 401 l 1
 441 391 l 1
 439 380 l 1
 433 371 l 1
 283 220 l 1
 435 46 l 1
 440 37 l 1
 441 26 l 1
 439 16 l 1
 432 7 l 1
 413 0 l 1
 362 0 l 1
 350 3 l 1
 340 10 l 1
 217 154 l 1
 156 94 l 1
 156 28 l 1
 154 17 l 1
 148 8 l 1
 139 2 l 1
 128 0 l 1
 103 0 l 1
 92 2 l 1
 83 8 l 1
 77 17 l 1
 75 28 l 1
 75 572 l 1
EndSplineSet
EndChar

StartChar: l
Encoding: 108 108 62
Width: 235
VWidth: 0
Flags: W
HStem: 0 21G<93 141> 580 20G<93 141>
VStem: 76 82<17 583>
LayerCount: 2
Back
Fore
SplineSet
76 572 m 1
 78 583 l 1
 84 592 l 1
 93 598 l 1
 130 600 l 1
 141 598 l 1
 150 592 l 1
 156 583 l 1
 158 572 l 1
 158 28 l 1
 156 17 l 1
 150 8 l 1
 141 2 l 1
 130 0 l 1
 93 2 l 1
 84 8 l 1
 78 17 l 1
 76 28 l 1
 76 572 l 1
EndSplineSet
EndChar

StartChar: m
Encoding: 109 109 63
Width: 804
VWidth: 0
Flags: W
HStem: 0 21G<93 141 378 426 663 711> 337 82<266 305 551 590>
VStem: 76 82<17 272 355 401> 361 82<17 272> 646 82<17 280>
CounterMasks: 1 38
LayerCount: 2
Back
Fore
SplineSet
76 391 m 1
 78 401 l 1
 84 410 l 1
 93 417 l 1
 130 419 l 1
 141 417 l 1
 150 410 l 1
 156 401 l 1
 158 355 l 1
 195 390 l 1
 247 416 l 1
 259 419 l 1
 337 419 l 1
 350 416 l 1
 410 383 l 1
 427 339 l 1
 480 390 l 1
 532 416 l 1
 544 419 l 1
 622 419 l 1
 635 416 l 1
 686 390 l 1
 695 383 l 1
 701 374 l 1
 728 287 l 1
 728 28 l 1
 726 17 l 1
 720 8 l 1
 711 2 l 1
 674 0 l 1
 663 2 l 1
 654 8 l 1
 648 17 l 1
 646 28 l 1
 646 280 l 1
 627 318 l 1
 590 337 l 1
 551 337 l 1
 507 315 l 1
 443 272 l 1
 443 28 l 1
 441 17 l 1
 435 8 l 1
 426 2 l 1
 415 0 l 1
 389 0 l 1
 378 2 l 1
 369 8 l 1
 363 17 l 1
 361 28 l 1
 361 280 l 1
 342 318 l 1
 305 337 l 1
 266 337 l 1
 222 315 l 1
 158 272 l 1
 158 28 l 1
 156 17 l 1
 150 8 l 1
 141 2 l 1
 104 0 l 1
 93 2 l 1
 84 8 l 1
 78 17 l 1
 76 28 l 1
 76 391 l 1
EndSplineSet
EndChar

StartChar: n
Encoding: 110 110 64
Width: 517
VWidth: 0
Flags: W
HStem: 0 21G<92 146 377 424> 337 82<265 303>
VStem: 75 81<17 272 355 401> 360 81<17 280>
LayerCount: 2
Back
Fore
SplineSet
75 391 m 1
 77 401 l 1
 83 410 l 1
 92 417 l 1
 128 419 l 1
 139 417 l 1
 148 410 l 1
 154 401 l 1
 156 355 l 1
 194 390 l 1
 245 416 l 1
 258 419 l 1
 336 419 l 1
 348 416 l 1
 409 383 l 1
 414 374 l 1
 441 287 l 1
 441 28 l 1
 439 17 l 1
 433 8 l 1
 424 2 l 1
 413 0 l 1
 388 0 l 1
 377 2 l 1
 368 8 l 1
 362 17 l 1
 360 28 l 1
 360 280 l 1
 341 318 l 1
 303 337 l 1
 265 337 l 1
 220 315 l 1
 156 272 l 1
 156 28 l 1
 154 17 l 1
 146 7 l 1
 128 0 l 1
 103 0 l 1
 92 2 l 1
 83 8 l 1
 77 17 l 1
 75 28 l 1
 75 391 l 1
EndSplineSet
EndChar

StartChar: o
Encoding: 111 111 65
Width: 492
VWidth: 0
Flags: W
HStem: 0 82<214 278> 337 82<214 278>
VStem: 51 80<188 231> 360 82<166.682 244>
LayerCount: 2
Back
Fore
SplineSet
143 390 m 1
 205 419 l 1
 285 419 l 1
 297 416 l 1
 356 385 l 1
 408 333 l 1
 415 322 l 1
 441 244 l 1
 442 183 l 1
 415 97 l 1
 408 86 l 1
 356 34 l 1
 297 3 l 1
 285 0 l 1
 207 0 l 1
 195 3 l 1
 135 34 l 1
 84 86 l 1
 77 97 l 1
 51 175 l 1
 51 244 l 1
 77 322 l 1
 84 333 l 1
 143 390 l 1
214 337 m 1
 172 316 l 1
 154 298 l 1
 131 231 l 1
 131 188 l 1
 154 121 l 1
 172 103 l 1
 214 82 l 1
 278 82 l 1
 320 103 l 1
 338 121 l 1
 360 188 l 1
 360 231 l 1
 338 298 l 1
 320 316 l 1
 278 337 l 1
 214 337 l 1
EndSplineSet
EndChar

StartChar: p
Encoding: 112 112 66
Width: 517
VWidth: 0
Flags: W
HStem: -181 21G<92 139> 0 82<239 303> 337 82<239 303>
VStem: 75 81<-164 38 123 296> 385 81<175 252.318>
LayerCount: 2
Back
Fore
SplineSet
75 391 m 1
 77 401 l 1
 83 410 l 1
 92 417 l 1
 103 419 l 1
 128 419 l 1
 139 417 l 1
 148 410 l 1
 154 401 l 1
 156 381 l 1
 168 390 l 1
 220 416 l 1
 232 419 l 1
 310 419 l 1
 322 416 l 1
 381 385 l 1
 433 333 l 1
 440 322 l 1
 467 235 l 1
 466 175 l 1
 440 97 l 1
 433 86 l 1
 374 29 l 1
 322 3 l 1
 310 0 l 1
 232 0 l 1
 220 3 l 1
 168 29 l 1
 156 38 l 1
 156 -153 l 1
 154 -164 l 1
 148 -173 l 1
 139 -179 l 1
 128 -181 l 1
 92 -179 l 1
 83 -173 l 1
 77 -164 l 1
 75 -153 l 1
 75 391 l 1
156 123 m 1
 239 82 l 1
 303 82 l 1
 345 103 l 1
 363 121 l 1
 385 188 l 1
 385 231 l 1
 363 298 l 1
 345 316 l 1
 303 337 l 1
 239 337 l 1
 156 296 l 1
 156 123 l 1
EndSplineSet
EndChar

StartChar: q
Encoding: 113 113 67
Width: 517
VWidth: 0
Flags: W
HStem: -181 21G<377 424> 0 82<213 277> 337 82<213 277>
VStem: 49 82<166.682 244> 360 81<-164 38 123 296>
LayerCount: 2
Back
Fore
SplineSet
388 419 m 1
 424 417 l 1
 433 410 l 1
 439 401 l 1
 441 391 l 1
 441 -153 l 1
 439 -164 l 1
 433 -173 l 1
 424 -179 l 1
 413 -181 l 1
 377 -179 l 1
 368 -173 l 1
 362 -164 l 1
 360 -153 l 1
 360 38 l 1
 348 29 l 1
 296 3 l 1
 284 0 l 1
 206 0 l 1
 194 3 l 1
 135 34 l 1
 83 86 l 1
 76 97 l 1
 49 183 l 1
 50 244 l 1
 76 322 l 1
 83 333 l 1
 142 390 l 1
 194 416 l 1
 206 419 l 1
 284 419 l 1
 296 416 l 1
 348 390 l 1
 360 381 l 1
 362 401 l 1
 368 410 l 1
 377 417 l 1
 388 419 l 1
360 296 m 1
 277 337 l 1
 213 337 l 1
 171 316 l 1
 153 298 l 1
 131 231 l 1
 131 188 l 1
 153 121 l 1
 171 103 l 1
 213 82 l 1
 277 82 l 1
 360 123 l 1
 360 296 l 1
EndSplineSet
EndChar

StartChar: r
Encoding: 114 114 68
Width: 362
VWidth: 0
Flags: W
HStem: 0 21G<93 140> 337 82<265 347>
VStem: 75 82<17 229 355 401>
LayerCount: 2
Back
Fore
SplineSet
75 391 m 1
 77 401 l 1
 83 410 l 1
 93 417 l 1
 129 419 l 1
 140 417 l 1
 149 410 l 1
 155 401 l 1
 157 355 l 1
 194 390 l 1
 246 416 l 1
 259 419 l 1
 347 417 l 1
 356 410 l 1
 362 401 l 1
 364 391 l 1
 362 354 l 1
 356 345 l 1
 347 339 l 1
 265 337 l 1
 223 316 l 1
 178 270 l 1
 157 229 l 1
 157 28 l 1
 155 17 l 1
 149 8 l 1
 140 2 l 1
 129 0 l 1
 93 2 l 1
 83 8 l 1
 77 17 l 1
 75 28 l 1
 75 391 l 1
EndSplineSet
EndChar

StartChar: s
Encoding: 115 115 69
Width: 440
VWidth: 0
Flags: W
HStem: 1 81<186 254> 337 82<186 254>
LayerCount: 2
Back
Fore
SplineSet
50 105 m 1
 52 116 l 1
 65 131 l 1
 75 134 l 1
 103 134 l 1
 122 126 l 1
 139 98 l 1
 186 82 l 1
 254 82 l 1
 301 98 l 1
 309 112 l 1
 309 125 l 1
 298 145 l 1
 145 209 l 1
 84 241 l 1
 52 300 l 1
 49 313 l 1
 52 325 l 1
 85 386 l 1
 172 417 l 1
 259 419 l 1
 345 391 l 1
 355 386 l 1
 387 325 l 1
 390 315 l 1
 389 304 l 1
 384 295 l 1
 373 287 l 1
 362 285 l 1
 326 287 l 1
 311 300 l 1
 301 321 l 1
 254 337 l 1
 186 337 l 1
 139 321 l 1
 135 313 l 1
 142 299 l 1
 167 287 l 1
 295 235 l 1
 356 203 l 1
 387 144 l 1
 390 106 l 1
 387 93 l 1
 355 33 l 1
 268 1 l 1
 172 1 l 1
 85 33 l 1
 52 93 l 1
 50 105 l 1
EndSplineSet
EndChar

StartChar: t
Encoding: 116 116 70
Width: 286
VWidth: 0
Flags: W
HStem: 0 21G<119 167> 337 82<42 102 184 244> 580 20G<119 167>
VStem: 102 82<17 337 419 583>
LayerCount: 2
Back
Fore
SplineSet
24 391 m 1
 26 401 l 1
 32 410 l 1
 42 417 l 1
 102 419 l 1
 102 572 l 1
 104 583 l 1
 110 592 l 1
 119 598 l 1
 130 600 l 1
 156 600 l 1
 167 598 l 1
 176 592 l 1
 182 583 l 1
 184 572 l 1
 184 419 l 1
 234 419 l 1
 244 417 l 1
 253 410 l 1
 259 401 l 1
 262 391 l 1
 262 365 l 1
 259 354 l 1
 253 345 l 1
 244 339 l 1
 184 337 l 1
 184 28 l 1
 182 17 l 1
 176 8 l 1
 167 2 l 1
 130 0 l 1
 119 2 l 1
 110 8 l 1
 104 17 l 1
 102 28 l 1
 102 337 l 1
 52 337 l 1
 42 339 l 1
 32 345 l 1
 26 354 l 1
 24 365 l 1
 24 391 l 1
EndSplineSet
EndChar

StartChar: u
Encoding: 117 117 71
Width: 517
VWidth: 0
Flags: W
HStem: 0 82<213 251> 399 20G<92 139 377 424>
VStem: 75 81<138 401> 360 81<17 64 147 401>
LayerCount: 2
Back
Fore
SplineSet
75 391 m 1
 77 401 l 1
 83 410 l 1
 92 417 l 1
 103 419 l 1
 139 417 l 1
 148 410 l 1
 154 401 l 1
 156 391 l 1
 156 138 l 1
 175 101 l 1
 213 82 l 1
 251 82 l 1
 296 104 l 1
 360 147 l 1
 360 391 l 1
 362 401 l 1
 368 410 l 1
 377 417 l 1
 388 419 l 1
 413 419 l 1
 424 417 l 1
 433 410 l 1
 439 401 l 1
 441 391 l 1
 441 28 l 1
 439 17 l 1
 433 8 l 1
 424 2 l 1
 413 0 l 1
 388 0 l 1
 377 2 l 1
 368 8 l 1
 362 17 l 1
 360 28 l 1
 360 64 l 1
 322 29 l 1
 271 3 l 1
 258 0 l 1
 180 0 l 1
 168 3 l 1
 107 36 l 1
 102 45 l 1
 75 132 l 1
 75 391 l 1
EndSplineSet
EndChar

StartChar: v
Encoding: 118 118 72
Width: 413
VWidth: 0
Flags: W
HStem: 0 21G<196 217> 399 20G<40 87 325 372>
LayerCount: 2
Back
Fore
SplineSet
23 390 m 1
 25 401 l 1
 31 410 l 1
 40 417 l 1
 76 419 l 1
 87 417 l 1
 96 410 l 1
 102 401 l 1
 206 153 l 1
 310 401 l 1
 316 410 l 1
 325 417 l 1
 336 419 l 1
 362 419 l 1
 372 417 l 1
 381 410 l 1
 387 401 l 1
 389 390 l 1
 387 380 l 1
 232 17 l 1
 226 8 l 1
 217 2 l 1
 206 0 l 1
 196 2 l 1
 186 8 l 1
 180 17 l 1
 25 380 l 1
 23 390 l 1
EndSplineSet
EndChar

StartChar: w
Encoding: 119 119 73
Width: 622
VWidth: 0
Flags: W
HStem: 399 20G<67 114 300 322 506 553>
LayerCount: 2
Back
Fore
SplineSet
49 391 m 1
 51 401 l 1
 57 410 l 1
 67 417 l 1
 103 419 l 1
 114 416 l 1
 123 410 l 1
 129 400 l 1
 206 188 l 1
 285 403 l 1
 291 411 l 1
 300 417 l 1
 311 419 l 1
 322 416 l 1
 331 410 l 1
 336 400 l 1
 414 188 l 1
 491 400 l 1
 497 410 l 1
 506 416 l 1
 517 419 l 1
 553 417 l 1
 563 410 l 1
 569 401 l 1
 570 381 l 1
 440 19 l 1
 433 7 l 1
 423 2 l 1
 404 2 l 1
 395 7 l 1
 388 16 l 1
 310 231 l 1
 232 16 l 1
 225 7 l 1
 216 2 l 1
 197 2 l 1
 187 7 l 1
 180 19 l 1
 49 391 l 1
EndSplineSet
EndChar

StartChar: x
Encoding: 120 120 74
Width: 465
VWidth: 0
Flags: W
HStem: 0 21G<66 115 349 398> 399 20G<66 115 349 398>
LayerCount: 2
Back
Fore
SplineSet
49 392 m 1
 52 404 l 1
 66 417 l 1
 102 419 l 1
 115 416 l 1
 124 408 l 1
 232 271 l 1
 340 408 l 1
 349 416 l 1
 387 419 l 1
 398 417 l 1
 407 410 l 1
 413 401 l 1
 415 391 l 1
 409 373 l 1
 281 209 l 1
 409 45 l 1
 415 28 l 1
 413 17 l 1
 407 8 l 1
 398 2 l 1
 387 0 l 1
 349 3 l 1
 340 11 l 1
 232 148 l 1
 124 11 l 1
 115 3 l 1
 77 0 l 1
 66 2 l 1
 57 8 l 1
 51 17 l 1
 49 28 l 1
 55 45 l 1
 183 209 l 1
 55 373 l 1
 49 392 l 1
EndSplineSet
EndChar

StartChar: y
Encoding: 121 121 75
Width: 413
VWidth: 0
Flags: W
HStem: -181 21G<91 139> 399 20G<40 87 325 372>
LayerCount: 2
Back
Fore
SplineSet
23 390 m 1
 25 401 l 1
 31 410 l 1
 40 417 l 1
 76 419 l 1
 87 417 l 1
 96 410 l 1
 102 401 l 1
 206 153 l 1
 310 401 l 1
 316 410 l 1
 325 417 l 1
 336 419 l 1
 372 417 l 1
 381 410 l 1
 387 401 l 1
 389 391 l 1
 387 380 l 1
 154 -164 l 1
 148 -173 l 1
 139 -179 l 1
 128 -181 l 1
 91 -179 l 1
 77 -164 l 1
 74 -153 l 1
 77 -142 l 1
 164 55 l 1
 25 380 l 1
 23 390 l 1
EndSplineSet
EndChar

StartChar: z
Encoding: 122 122 76
Width: 465
VWidth: 0
Flags: W
HStem: 0 82<185 398> 337 82<66 279>
LayerCount: 2
Back
Fore
SplineSet
49 391 m 1
 51 401 l 1
 57 410 l 1
 66 417 l 1
 77 419 l 1
 387 419 l 1
 398 417 l 1
 407 410 l 1
 415 394 l 1
 414 383 l 1
 410 374 l 1
 185 82 l 1
 387 82 l 1
 398 80 l 1
 407 74 l 1
 413 65 l 1
 415 54 l 1
 415 28 l 1
 413 17 l 1
 407 8 l 1
 398 2 l 1
 387 0 l 1
 77 0 l 1
 66 2 l 1
 57 8 l 1
 49 24 l 1
 50 35 l 1
 54 45 l 1
 279 337 l 1
 77 337 l 1
 66 339 l 1
 57 345 l 1
 51 354 l 1
 49 391 l 1
EndSplineSet
EndChar

StartChar: degree
Encoding: 176 176 77
Width: 361
VWidth: 0
Flags: W
HStem: 337 263
VStem: 49 262
LayerCount: 2
Back
Fore
SplineSet
49 495 m 1
 51 506 l 1
 77 559 l 1
 86 569 l 1
 150 600 l 1
 210 600 l 1
 270 571 l 1
 281 562 l 1
 311 497 l 1
 311 440 l 1
 283 378 l 1
 274 368 l 1
 209 337 l 1
 151 337 l 1
 90 366 l 1
 79 375 l 1
 49 440 l 1
 49 495 l 1
151 529 m 1
 119 497 l 1
 112 468 l 1
 119 440 l 1
 151 407 l 1
 180 400 l 1
 209 407 l 1
 241 440 l 1
 248 468 l 1
 241 497 l 1
 209 529 l 1
 180 537 l 1
 151 529 l 1
EndSplineSet
EndChar

StartChar: glyph78
Encoding: 256 8216 78
Width: 286
VWidth: 0
Flags: W
HStem: 365 232 580 20G<169 191>
VStem: 76 131
LayerCount: 2
Back
Fore
SplineSet
76 494 m 1xa0
 79 507 l 1
 110 566 l 1
 169 597 l 1xa0
 180 600 l 1x60
 191 599 l 1
 200 593 l 1
 207 585 l 1
 210 574 l 1
 208 563 l 1
 203 554 l 1
 194 547 l 1
 154 527 l 1
 146 496 l 1
 167 494 l 1
 176 488 l 1
 208 453 l 1
 210 417 l 1
 208 406 l 1
 202 397 l 1
 167 365 l 1
 130 363 l 1
 119 365 l 1
 110 371 l 1
 78 406 l 1
 76 494 l 1xa0
EndSplineSet
EndChar

StartChar: glyph79
Encoding: 257 8217 79
Width: 286
VWidth: 0
Flags: W
HStem: 366 232 580 20G<119 167>
VStem: 78 130
LayerCount: 2
Back
Fore
SplineSet
139 466 m 1xa0
 119 468 l 1
 84 500 l 1
 78 509 l 1
 76 520 l 1
 76 546 l 1
 78 557 l 1
 84 566 l 1
 110 592 l 1
 119 598 l 1xa0
 130 600 l 1
 156 600 l 1x60
 167 598 l 1
 176 592 l 1
 208 557 l 1
 210 468 l 1
 208 458 l 1
 176 397 l 1
 117 366 l 1
 106 363 l 1
 95 364 l 1
 86 370 l 1
 79 378 l 1
 76 389 l 1
 78 400 l 1
 83 409 l 1
 92 416 l 1
 132 436 l 1
 139 466 l 1xa0
EndSplineSet
EndChar

StartChar: glyph80
Encoding: 258 8242 80
Width: 235
VWidth: 0
Flags: W
HStem: 365 233 580 20G<119 141>
VStem: 76 108
LayerCount: 2
Back
Fore
SplineSet
76 390 m 1xa0
 76 546 l 1
 78 557 l 1
 84 566 l 1
 119 598 l 1xa0
 130 600 l 1x60
 141 598 l 1
 176 566 l 1
 184 547 l 1
 182 537 l 1
 128 376 l 1
 115 365 l 1
 95 364 l 1
 81 374 l 1
 76 390 l 1xa0
EndSplineSet
EndChar

StartChar: glyph81
Encoding: 259 8243 81
Width: 466
VWidth: 0
Flags: W
HStem: 365 233 580 20G<119 140 352 373>
LayerCount: 2
Back
Fore
SplineSet
309 390 m 1x80
 309 546 l 1
 311 557 l 1
 343 592 l 1
 352 598 l 1x80
 363 600 l 1x40
 373 598 l 1
 408 566 l 1
 416 547 l 1
 415 537 l 1
 360 376 l 1
 347 365 l 1
 328 364 l 1
 314 374 l 1
 309 390 l 1x80
76 390 m 1
 75 546 l 1
 78 557 l 1
 84 566 l 1
 119 598 l 1x80
 129 600 l 1x40
 140 598 l 1
 175 566 l 1
 181 557 l 1
 182 537 l 1
 127 376 l 1
 114 365 l 1
 95 364 l 1
 81 374 l 1
 76 390 l 1
EndSplineSet
EndChar

